<svg width="190" height="70" viewBox="0 0 190 70" fill="none" xmlns="http://www.w3.org/2000/svg">
<g clip-path="url(#clip0_120_24995)">
<path fill-rule="evenodd" clip-rule="evenodd" d="M45.2832 20.5306L24.9199 0.644545C24.5173 0.255909 23.7337 0.50809 23.7767 1.01245L25.4512 20.2733L10.5808 10.0133C10.1031 9.68509 9.38389 10.0426 9.53525 10.534L15.4145 29.5591L1.14519 22.7795C0.604175 22.523 -0.0270119 22.9765 0.228468 23.4385L25.2795 68.8658C25.5371 69.3321 26.3851 69.251 26.5032 68.75L31.9477 45.4405L45.8596 26.4785C47.2443 24.5958 47.0125 22.2121 45.2832 20.5246V20.5306Z" fill="#3A3A3A"/>
<path fill-rule="evenodd" clip-rule="evenodd" d="M25.2813 20.2733L10.4098 10.0133C9.93319 9.68509 9.2129 10.0426 9.36426 10.5332L15.2446 29.5565L26.5544 34.93L25.2813 20.2655V20.2733Z" fill="#3A3A3A"/>
<path fill-rule="evenodd" clip-rule="evenodd" d="M25.5065 58.8407C25.2842 59.3183 24.4309 59.2785 24.2774 58.7837L15.2443 29.5496L0.973908 22.7709C0.432891 22.5144 -0.196149 22.9678 0.0582578 23.4299L25.1093 68.8571C25.3669 69.3235 26.2149 69.244 26.333 68.7431L31.7754 45.4405L31.6841 45.5657L25.5065 58.8364V58.8407Z" fill="#3A3A3A"/>
<path fill-rule="evenodd" clip-rule="evenodd" d="M25.5065 58.8407L31.6842 45.5735L28.9791 49.2612C28.657 49.7 27.8241 49.541 27.78 49.0324L26.5563 34.9292L15.2422 29.5591L24.2752 58.7845C24.4287 59.2803 25.2821 59.32 25.5043 58.8424" fill="#3A3A3A"/>
<path fill-rule="evenodd" clip-rule="evenodd" d="M45.1146 20.5306L24.7492 0.644545C24.3499 0.255909 23.5652 0.50809 23.6092 1.01245L25.2838 20.2733L35.6135 27.4017C37.6746 28.8224 38.4099 31.13 37.4577 33.176L31.8114 45.3015L31.7792 45.4465L45.6911 26.4845C47.0758 24.6001 46.8439 22.2182 45.1146 20.5306Z" fill="#3A3A3A"/>
<path fill-rule="evenodd" clip-rule="evenodd" d="M29.5664 36.3611C31.9066 37.4735 33.1303 39.6481 32.629 41.8003L31.811 45.3006L37.4574 33.1751C38.4084 31.13 37.672 28.8224 35.611 27.4009L25.2812 20.2759L26.5544 34.9318L29.5664 36.3654V36.3611Z" fill="#3A3A3A"/>
<path fill-rule="evenodd" clip-rule="evenodd" d="M31.6855 45.5925L31.7843 45.4569L31.8165 45.3015" fill="#3A3A3A"/>
<path fill-rule="evenodd" clip-rule="evenodd" d="M31.6855 45.5925L31.7843 45.4569L31.8165 45.3015" fill="#3A3A3A"/>
<path fill-rule="evenodd" clip-rule="evenodd" d="M29.5668 36.3611L26.5547 34.9309L27.7806 49.0324C27.8235 49.5419 28.6565 49.7 28.9785 49.2604L31.6836 45.5726L31.8124 45.3006L32.6282 41.8003C33.1328 39.6481 31.9069 37.4735 29.5668 36.3611Z" fill="#3A3A3A"/>
<path fill-rule="evenodd" clip-rule="evenodd" d="M60.7437 45.862H73.0272L66.8871 32.7001L60.7437 45.862ZM66.5232 27.7575H67.4785C68.7774 27.7575 69.9367 28.3966 70.409 29.3656L84.7717 58.8899H80.4565C79.6729 58.8899 78.9751 58.4995 78.696 57.9105L74.7672 49.5911H59.0724L55.2294 57.901C54.9557 58.4952 54.2526 58.8899 53.4615 58.8899H49.3008L63.5916 29.3691C64.0639 28.3975 65.2275 27.7575 66.5232 27.7575Z" fill="#3A3A3A"/>
<mask id="mask0_120_24995" style="mask-type:luminance" maskUnits="userSpaceOnUse" x="0" y="0" width="189" height="70">
<path d="M0 69.1741H188.933V0.454544H0V69.1741Z" fill="#23282C"/>
</mask>
<g mask="url(#mask0_120_24995)">
<path fill-rule="evenodd" clip-rule="evenodd" d="M143.866 58.8925H149.115V27.761H143.866M163.806 34.6632V58.8985H158.949V27.7904H162.013C163.032 27.7904 163.988 28.1894 164.578 28.8587L184.075 51.011V27.7627L188.933 27.7567V58.8968H186.603C185.578 58.8968 184.617 58.497 184.029 57.8225L163.805 34.6632H163.806ZM124.858 58.8925H120.447L110.005 33.6458L99.5638 58.8925H95.2153L83.5898 27.761H87.7763C88.6222 27.761 89.365 28.2144 89.5936 28.8699L97.6724 52.1104L106.968 29.072C107.28 28.2904 108.186 27.761 109.212 27.761H111.028C112.051 27.761 112.957 28.2904 113.272 29.072L122.571 52.1095L130.616 28.8777C130.842 28.2213 131.589 27.7696 132.436 27.7696H136.475L124.864 58.8968L124.858 58.8925Z" fill="#3A3A3A"/>
</g>
</g>
<defs>
<clipPath id="clip0_120_24995">
<rect width="190" height="69.0909" fill="white" transform="translate(0 0.454544)"/>
</clipPath>
</defs>
</svg>
