<svg width="220" height="28" viewBox="0 0 220 28" fill="none" xmlns="http://www.w3.org/2000/svg">
<g clip-path="url(#clip0_120_24962)">
<path d="M5.21484 0.843994C4.49764 0.909994 4.00484 1.23559 3.78044 1.79L3.67484 2.054L3.66164 4.2408L3.64844 6.432H5.28084H6.90884V5.58279C6.91324 5.12079 6.93084 4.64999 6.94844 4.54C6.99684 4.3068 7.21244 4.08679 7.46764 4.0164C7.57764 3.98559 8.53684 3.96799 10.266 3.96799H12.8928V15.364V26.76H14.7408H16.5888L16.5976 15.3728L16.6108 3.98999L21.134 3.9768L25.6528 3.96799V2.384V0.799995L15.612 0.804394C10.0856 0.808794 5.40844 0.826395 5.21484 0.843994Z" fill="#3A3A3A"/>
<path d="M155.352 1.086C155.343 1.2312 155.33 1.9176 155.325 2.6128L155.316 3.88H156.196C157.107 3.88 157.244 3.902 157.424 4.0692C157.666 4.2936 157.653 3.5544 157.653 15.6104V26.76H159.347C160.28 26.76 161.041 26.7556 161.041 26.7468C161.08 26.5312 161.08 25.5192 161.045 24.8944C161.019 24.4368 161.006 24.054 161.014 24.0452C161.023 24.0364 161.133 24.1772 161.256 24.362C161.547 24.78 162.286 25.5324 162.713 25.8448C163.984 26.7644 165.287 27.1692 166.981 27.1692C168.362 27.1648 169.537 26.8788 170.765 26.2496C172.168 25.528 173.414 24.2344 174.175 22.712C175.622 19.8168 175.719 15.6412 174.408 12.548C173.884 11.3116 173.119 10.2644 172.155 9.446C170.589 8.1216 168.428 7.5144 166.233 7.774C164.187 8.016 162.568 8.9224 161.393 10.48C161.314 10.59 161.23 10.6956 161.217 10.7132C161.199 10.7308 161.186 8.9092 161.186 6.6652C161.19 2.9912 161.182 2.5512 161.116 2.2828C160.926 1.5216 160.522 1.1036 159.782 0.914396C159.571 0.861597 159.131 0.843998 157.446 0.835197L155.374 0.821997L155.352 1.086ZM167.425 10.942C169.018 11.2764 170.228 12.2576 170.967 13.802C171.473 14.8624 171.676 15.7644 171.72 17.1504C171.79 19.522 171.187 21.3392 169.872 22.6812C168.961 23.6184 167.738 24.12 166.387 24.12C165.08 24.12 163.945 23.6668 163.069 22.7956C162.106 21.832 161.503 20.5296 161.23 18.8136C161.124 18.158 161.129 16.7676 161.234 16.068C161.498 14.3212 162 13.208 162.95 12.2576C163.602 11.6108 164.389 11.1752 165.287 10.9684C165.912 10.8276 166.814 10.8144 167.425 10.942Z" fill="#3A3A3A"/>
<path d="M65.253 2.3576V3.8756L66.1902 3.88879C67.2198 3.90199 67.255 3.9108 67.4662 4.2056L67.563 4.342L67.585 7.44399C67.5982 9.1512 67.607 10.5504 67.6026 10.5592C67.5982 10.5636 67.5102 10.436 67.4046 10.2732C67.1582 9.89039 66.4718 9.20399 66.045 8.90919C65.3542 8.43839 64.4918 8.07319 63.6206 7.87519C63.1982 7.78279 63.0618 7.77399 61.865 7.77399C60.677 7.77399 60.5274 7.78279 60.105 7.87519C56.8842 8.5792 54.5962 10.9684 53.7954 14.4708C53.1002 17.4892 53.5006 20.864 54.8294 23.2488C55.9426 25.2464 57.6762 26.54 59.8586 27.0064C61.601 27.376 63.559 27.1692 64.9582 26.4696C66.1682 25.858 67.0394 25.0484 67.739 23.878C67.7698 23.8296 67.783 24.0232 67.783 24.5248C67.7874 25.3168 67.8358 25.5764 68.0646 25.9328C68.3198 26.3332 68.8434 26.6236 69.4594 26.716C69.6266 26.738 70.599 26.76 71.6242 26.76H73.481V25.2508C73.4766 23.5524 73.4722 23.526 73.2126 23.658C73.1026 23.7152 73.019 23.724 72.8254 23.6976C72.689 23.68 72.3942 23.6712 72.1698 23.6756C71.7166 23.6844 71.5538 23.6316 71.3426 23.4116L71.215 23.2796L71.1886 12.9088C71.1622 1.77679 71.1754 2.3532 70.9598 1.85159C70.8322 1.5568 70.4626 1.20919 70.0974 1.0288L69.763 0.865995L67.5102 0.852795L65.253 0.839594V2.3576ZM63.603 10.9596C64.087 11.0784 64.6678 11.3292 65.0682 11.5888C65.4774 11.8572 66.1154 12.4952 66.4278 12.9484C67.6114 14.6732 68.003 17.322 67.431 19.7376C67.2858 20.3448 67.0878 20.9036 66.8546 21.348C66.0582 22.8528 64.7734 23.7812 63.1762 24.01C61.491 24.252 60.0566 23.79 58.939 22.6504C58.1998 21.8936 57.7158 21.0004 57.3946 19.764C57.2538 19.2272 57.113 18.0788 57.113 17.432C57.113 16.7984 57.2494 15.6984 57.399 15.122C57.9974 12.834 59.533 11.2808 61.579 10.898C62.0718 10.8056 63.1278 10.8364 63.603 10.9596Z" fill="#3A3A3A"/>
<path d="M105.162 2.36199V3.87999H105.989C107.049 3.87999 107.221 3.92399 107.401 4.25399C107.463 4.37279 107.476 4.71599 107.494 7.48799C107.507 9.19519 107.516 10.5944 107.516 10.5988C107.511 10.6032 107.423 10.4756 107.318 10.3172C107.111 10.0092 106.446 9.31399 106.152 9.08959C104.018 7.47919 100.744 7.25919 98.0908 8.55279C95.8424 9.64399 94.254 11.8352 93.6556 14.6644C93.4708 15.54 93.4092 16.0856 93.3828 17.08C93.3036 20.0104 94.034 22.5492 95.4684 24.3532C96.674 25.8624 98.324 26.804 100.256 27.0856C100.977 27.1912 101.536 27.2132 102.148 27.1604C103.564 27.0328 104.629 26.6764 105.632 25.9944C105.98 25.7612 106.055 25.704 106.455 25.352C106.702 25.132 107.23 24.4852 107.458 24.1244C107.56 23.9528 107.656 23.8164 107.67 23.812C107.683 23.812 107.687 24.0628 107.678 24.3708C107.661 25.0088 107.714 25.3828 107.868 25.726C108.07 26.1836 108.413 26.4608 108.994 26.6324C109.302 26.7248 109.421 26.7292 111.335 26.7468L113.346 26.7688V25.2464V23.724H112.721C111.678 23.7196 111.392 23.6536 111.172 23.3544L111.08 23.2356L111.058 12.8648C111.036 2.87239 111.031 2.48519 110.952 2.20799C110.767 1.57879 110.437 1.20479 109.848 0.971594L109.584 0.865993L107.375 0.852793L105.162 0.839594V2.36199ZM102.878 10.854C103.56 10.9068 104.431 11.2148 105.034 11.6284C105.421 11.8924 106.064 12.548 106.345 12.966C106.961 13.8944 107.401 15.1484 107.533 16.3848C107.595 16.9348 107.595 18.0612 107.533 18.6112C107.304 20.7012 106.455 22.338 105.131 23.2312C103.573 24.2872 101.246 24.362 99.7276 23.4028C98.456 22.602 97.5452 21.1852 97.202 19.4648C97.07 18.8092 97.0216 18.2592 97.0216 17.3792C97.026 15.98 97.2328 14.9372 97.7256 13.8856C98.4296 12.3808 99.6484 11.3248 101.109 10.964C101.483 10.8672 102.178 10.788 102.412 10.8144C102.486 10.8232 102.693 10.8408 102.878 10.854Z" fill="#3A3A3A"/>
<path d="M175.43 2.3576V3.8756L176.371 3.8888C177.445 3.902 177.476 3.9152 177.665 4.276L177.762 4.4696V14.616C177.762 21.3656 177.779 24.8548 177.806 25.044C177.973 26.0912 178.549 26.6104 179.658 26.716C180.133 26.7644 182.778 26.7732 183.275 26.7336L183.614 26.7028V25.1716V23.636H182.685C181.836 23.636 181.744 23.6272 181.612 23.548C181.326 23.372 181.348 24.2212 181.326 12.834C181.304 3.132 181.299 2.4324 181.224 2.1948C181.018 1.4952 180.6 1.0948 179.887 0.909998C179.68 0.857199 179.253 0.843998 177.533 0.843998H175.43V2.3576Z" fill="#3A3A3A"/>
<path d="M193.601 7.7388C191.511 7.884 189.676 8.6056 188.171 9.8728C186.143 11.58 184.968 14.3168 184.973 17.3396C184.973 17.7576 184.981 18.2328 184.999 18.3956C185.175 20.3052 185.87 22.1664 186.887 23.46C187.01 23.6184 187.151 23.7944 187.195 23.856C187.401 24.1244 188.273 24.9384 188.673 25.2376C190.495 26.6104 192.959 27.3144 195.396 27.1516C197.504 27.0152 199.413 26.3552 201.072 25.1848C201.429 24.9384 201.952 24.5072 201.957 24.4632C201.961 24.428 201.763 24.0936 201.332 23.394C201.195 23.174 200.967 22.7956 200.817 22.5492C200.667 22.3028 200.518 22.0784 200.483 22.0476C200.43 22.0036 200.373 22.0256 200.166 22.1752C198.907 23.0948 198.014 23.5436 196.817 23.856C195.577 24.186 194.01 24.1376 192.813 23.7416C190.495 22.9672 188.871 20.8244 188.651 18.2328L188.62 17.872H195.396H202.168L202.199 17.6652C202.212 17.5464 202.238 17.0888 202.251 16.64C202.313 14.8404 201.961 13.1992 201.213 11.7648C200.773 10.9288 200.527 10.5856 199.884 9.9212C198.362 8.346 196.105 7.5628 193.601 7.7388ZM195.031 10.6296C196.109 10.8232 197.099 11.4436 197.684 12.2972C197.904 12.6096 198.199 13.23 198.322 13.626C198.454 14.0528 198.573 14.7216 198.573 15.0428V15.276H193.667C190.97 15.276 188.761 15.2628 188.761 15.2496C188.761 15.188 188.906 14.6556 189.012 14.33C189.663 12.3236 191.163 11.008 193.223 10.634C193.649 10.5548 194.6 10.5548 195.031 10.6296Z" fill="#3A3A3A"/>
<path d="M41.1624 7.8444C38.7115 8.214 37.1847 9.1028 36.7579 10.4096C36.7007 10.59 36.6787 10.8716 36.6655 11.8572L36.6435 13.076L38.3331 13.0672L40.0183 13.054V12.438C40.0183 11.712 40.0711 11.5448 40.3747 11.2764C40.8939 10.8232 41.8795 10.568 43.1424 10.568C44.942 10.568 46.0991 11.1312 46.6536 12.284C46.9615 12.922 47.0892 13.516 47.1508 14.6248L47.1816 15.144H46.5655C45.8396 15.144 44.3568 15.2144 43.6704 15.276C40.9819 15.5312 38.9227 16.1516 37.4707 17.1372C37.0087 17.4496 36.3091 18.1272 36.0495 18.51C35.6403 19.1216 35.3499 19.8476 35.2179 20.6176C35.1035 21.26 35.1519 22.272 35.3323 22.9496C35.4863 23.5568 35.7371 24.1376 36.0275 24.582C36.3003 25 37.0791 25.7744 37.5103 26.056C38.7775 26.8788 40.4804 27.3012 42.0115 27.1648C43.7452 27.0108 44.9551 26.4696 46.0947 25.33C46.6052 24.8196 46.8647 24.4896 47.1903 23.9176L47.3884 23.57V24.318C47.3884 25.1276 47.4324 25.4048 47.6259 25.7832C47.8504 26.2276 48.33 26.5576 48.9284 26.6808C49.1396 26.7248 49.7028 26.738 51.1284 26.738H53.0424L53.0556 25.308C53.0644 24.3136 53.0512 23.8428 53.016 23.7548L52.9676 23.636H52.0347H51.102L50.9832 23.5128C50.7192 23.24 50.7324 23.482 50.7324 18.6112C50.7324 14.4532 50.728 14.11 50.6488 13.516C50.4948 12.3852 50.3099 11.7032 49.9623 10.9992C49.122 9.3008 47.6304 8.2932 45.3203 7.8752C44.8847 7.796 44.6032 7.7828 43.2744 7.7696C41.9148 7.7564 41.6684 7.7652 41.1624 7.8444ZM47.1903 17.9732C47.2299 18.2328 47.1463 19.192 47.0364 19.7068C46.6491 21.568 45.5096 23.152 44.0311 23.878C43.3756 24.1992 43.0544 24.2652 42.1744 24.2696C41.4836 24.2696 41.3955 24.2608 41.0303 24.1464C40.498 23.9836 40.1459 23.8076 39.8071 23.5216C38.7379 22.646 38.4563 21.0708 39.1471 19.9004C39.4683 19.3592 40.1416 18.8312 40.8763 18.5364C42.1744 18.0216 43.6923 17.8104 46.2311 17.7928L47.1639 17.784L47.1903 17.9732Z" fill="#3A3A3A"/>
<path d="M81.7478 7.818C78.2366 8.3856 75.6274 10.59 74.5186 13.9252C73.797 16.0812 73.7882 18.6332 74.4922 20.7408C75.1566 22.734 76.393 24.3752 78.1134 25.5412C78.9846 26.1352 80.3002 26.6896 81.4222 26.9316C82.3022 27.1252 82.7994 27.1736 83.7982 27.1736C85.0522 27.1736 85.809 27.068 86.9662 26.7292C88.3082 26.3376 89.989 25.4224 90.8866 24.5908L91.023 24.4676L90.2838 23.2312C89.879 22.5536 89.5358 21.9772 89.527 21.9508C89.5182 21.9244 89.4258 21.9728 89.3158 22.0608C89.2102 22.1444 88.955 22.3336 88.7482 22.4788C87.1026 23.636 85.457 24.1464 83.6398 24.0584C82.0206 23.9836 80.639 23.3852 79.5214 22.272C78.4478 21.2072 77.9022 19.9708 77.6822 18.1008L77.6558 17.872H84.4274H91.2034L91.2298 17.7488C91.2914 17.4804 91.309 15.8568 91.2606 15.32C91.089 13.5424 90.495 11.8704 89.6326 10.722C88.5238 9.2436 87.107 8.3328 85.2458 7.9016C84.7442 7.7872 84.665 7.7784 83.4242 7.7696C82.4782 7.7608 82.025 7.774 81.7478 7.818ZM84.3966 10.7132C85.0742 10.8892 85.6374 11.2016 86.1478 11.6856C86.9486 12.4512 87.4326 13.4632 87.5646 14.6556C87.5866 14.8624 87.6174 15.0868 87.6306 15.1528L87.657 15.276H82.7466C78.7558 15.276 77.8362 15.2672 77.8362 15.2188C77.8362 15.188 77.8846 14.9724 77.9462 14.7436C78.2454 13.5864 78.7162 12.7592 79.5038 12.0068C80.2606 11.2852 81.1494 10.8496 82.3022 10.634C82.8478 10.5328 83.8554 10.5724 84.3966 10.7132Z" fill="#3A3A3A"/>
<path d="M122.628 7.7828C122.135 7.8136 121.128 8.0424 120.406 8.2888C116.956 9.468 114.589 12.2576 113.978 15.87C113.872 16.486 113.872 18.268 113.978 18.95C114.519 22.492 116.886 25.3432 120.296 26.5708C122.342 27.3056 124.806 27.3672 126.896 26.738C129.804 25.8668 132.04 23.8604 133.166 21.1236C133.923 19.28 134.081 17.08 133.597 15.1C133.294 13.846 132.682 12.548 131.921 11.536C131.586 11.096 130.799 10.3084 130.28 9.8948C128.823 8.7464 126.984 7.9984 125.114 7.796C124.749 7.7564 123.196 7.7476 122.628 7.7828ZM124.916 10.9024C125.739 11.03 126.878 11.4964 127.578 11.998C128.577 12.7064 129.474 13.934 129.866 15.1132C130.434 16.8248 130.31 18.9104 129.554 20.49C129.224 21.1764 128.872 21.6648 128.291 22.2456C127.05 23.482 125.62 24.076 123.873 24.076C122.122 24.076 120.652 23.4732 119.434 22.2544C118.228 21.0444 117.603 19.5352 117.537 17.674C117.493 16.3804 117.704 15.3728 118.237 14.2948C118.875 12.9968 119.847 12.0376 121.154 11.4216C122.32 10.8672 123.57 10.6956 124.916 10.9024Z" fill="#3A3A3A"/>
<path d="M32.6263 7.97639C30.8223 8.24039 29.2999 9.31839 28.2659 11.0652C28.0195 11.4788 27.7951 11.9232 27.5927 12.394L27.4783 12.6624L27.4915 11.338C27.5091 9.89039 27.4739 9.57799 27.2583 9.12919C27.1087 8.82559 26.7347 8.48679 26.4091 8.36799C25.9031 8.17439 25.6127 8.15239 23.6195 8.14799H21.7363V9.68359V11.2236L22.6559 11.2368C23.7031 11.25 23.7295 11.2588 23.9363 11.6284L24.0463 11.822L24.0595 19.2888L24.0683 26.76H25.8283H27.5883V22.9408C27.5883 18.9544 27.6191 17.982 27.7643 17.102C28.2439 14.1804 29.8059 12.2136 32.1643 11.5668C32.4371 11.492 32.6263 11.4788 33.2423 11.4744C33.6647 11.4744 34.0607 11.4964 34.1575 11.5228L34.3203 11.5712V9.78039V7.98519L34.0519 7.95439C33.6911 7.91919 32.9563 7.92799 32.6263 7.97639Z" fill="#3A3A3A"/>
<path d="M214.748 7.97639C212.944 8.22719 211.452 9.248 210.374 10.9772C210.15 11.3336 209.807 12.0288 209.666 12.4028C209.609 12.5524 209.534 12.6844 209.499 12.6976C209.446 12.7196 209.442 12.7064 209.468 12.6492C209.49 12.6052 209.508 11.9056 209.508 11.096V9.62199L209.393 9.3448C209.094 8.6452 208.628 8.32399 207.708 8.19639C207.51 8.16999 206.608 8.14799 205.565 8.14799H203.766V9.68359V11.2236L204.707 11.2368C205.759 11.25 205.798 11.2632 205.988 11.5844C206.076 11.734 206.076 11.822 206.089 19.2448L206.098 26.76H207.858H209.618V23.3588C209.622 19.9488 209.657 18.2504 209.75 17.476C209.917 16.0768 210.304 14.9504 210.951 13.9736C211.892 12.5436 213.182 11.69 214.7 11.4832C215.034 11.4392 215.892 11.4568 216.209 11.5184L216.35 11.5448V9.78479C216.35 8.14799 216.345 8.0248 216.275 7.99399C216.143 7.94559 215.069 7.93239 214.748 7.97639Z" fill="#3A3A3A"/>
<path d="M134.301 8.1964C134.257 8.2404 134.244 8.60999 134.244 9.73639V11.2236L135.186 11.2368C136.233 11.25 136.259 11.2588 136.479 11.58L136.576 11.7252V16.1076C136.576 18.6816 136.594 20.754 136.625 21.1236C136.867 24.5556 138.341 26.4828 141.126 27.0196C142.595 27.3056 144.166 27.2088 145.447 26.7556C147.242 26.122 148.755 24.8372 149.547 23.2752L149.754 22.866L149.781 24.076C149.794 24.7712 149.825 25.3432 149.851 25.418C150.045 25.9504 150.309 26.254 150.762 26.4696C150.933 26.5532 151.175 26.6412 151.294 26.672C151.439 26.7072 152.192 26.7336 153.529 26.7468L155.54 26.7688V25.5676C155.54 24.9032 155.527 24.1992 155.509 23.9968L155.483 23.6272L154.863 23.658C154.154 23.6932 153.595 23.6404 153.472 23.526C153.424 23.482 153.345 23.3676 153.296 23.2664C153.213 23.086 153.208 22.9936 153.199 16.2C153.195 12.4116 153.182 9.05 153.173 8.7288L153.16 8.14799H151.404H149.649L149.631 13.0408C149.613 17.7796 149.613 17.9512 149.525 18.378C149.253 19.698 148.826 20.7012 148.166 21.5812C147.264 22.7824 146.027 23.5436 144.571 23.7944C143.999 23.8956 142.837 23.8604 142.415 23.7328C141.13 23.3412 140.51 22.514 140.219 20.798C140.184 20.578 140.162 18.928 140.14 15.122C140.123 11.5096 140.096 9.7056 140.065 9.59999C139.828 8.8256 139.471 8.4736 138.701 8.2492C138.481 8.1876 138.151 8.1744 136.4 8.1612C134.79 8.1436 134.341 8.1524 134.301 8.1964Z" fill="#3A3A3A"/>
</g>
<defs>
<clipPath id="clip0_120_24962">
<rect width="220" height="26.4" fill="white" transform="translate(0 0.799999)"/>
</clipPath>
</defs>
</svg>
