<svg width="75" height="71" viewBox="0 0 75 71" fill="none" xmlns="http://www.w3.org/2000/svg">
<g id="Group 2061">
<path id="Vector 17" d="M29.0613 21.4164L2.39406 43.8042C1.54809 44.5144 1.43803 45.776 2.14825 46.6219L20.1516 68.0667C20.8619 68.9127 22.1234 69.0227 22.9694 68.3125L49.6366 45.9247C50.1379 45.5039 50.4016 44.8644 50.3425 44.2125L48.8038 27.2247C48.7284 26.3915 48.1422 25.6933 47.3346 25.4746L30.8699 21.0176C30.2381 20.8466 29.5626 20.9956 29.0613 21.4164Z" stroke="white" stroke-width="2.5"/>
<circle id="Ellipse 158" cx="40.2528" cy="32.9114" r="4.75" transform="rotate(49.9857 40.2528 32.9114)" stroke="white" stroke-width="2.5"/>
<path id="Ellipse 159" d="M55.3 25.1748C52.3104 27.6847 49.2924 29.5035 46.8618 30.436C45.6405 30.9045 44.6344 31.1233 43.8896 31.134C43.1324 31.1449 42.8446 30.9458 42.7409 30.8222C42.6372 30.6986 42.4909 30.3807 42.6327 29.6368C42.7723 28.9052 43.1619 27.9522 43.8349 26.8305C45.1741 24.598 47.4881 21.9405 50.4777 19.4307C53.4673 16.9208 56.4853 15.102 58.916 14.1695C60.1372 13.701 61.1434 13.4822 61.8881 13.4715C62.6453 13.4606 62.9331 13.6597 63.0368 13.7833C63.1406 13.9069 63.2868 14.2248 63.145 14.9687C63.0055 15.7003 62.6158 16.6533 61.9429 17.775C60.6036 20.0075 58.2896 22.665 55.3 25.1748Z" stroke="white" stroke-width="2.5"/>
</g>
</svg>
