<svg width="46" height="51" viewBox="0 0 46 51" fill="none" xmlns="http://www.w3.org/2000/svg">
<g id="Group 2063">
<path id="Vector 19" d="M5.66637 9.36457C5.11472 12.286 3.97969 18.7126 3.51182 24.4313C2.93494 31.4822 -0.212521 40.7454 3.51166 45.6046C6.25535 49.1845 11.5827 48.7578 14.0991 48.7578H31.5601C34.7056 48.7578 38.9897 49.2562 41.8391 45.6046C45.8345 40.4843 42.846 30.2502 41.8391 22.6998C41.027 16.6097 40.2755 11.8157 39.8875 9.42731C39.7313 8.46612 38.9003 7.76556 37.9265 7.76556H7.6098C6.6598 7.76556 5.84264 8.43107 5.66637 9.36457Z" stroke="white" stroke-width="2.5"/>
<path id="Vector 21" d="M15.9668 17.0995C15.9668 18.4571 17.2113 22.6998 22.8117 22.6998C28.412 22.6998 29.6565 18.4571 29.6565 17.0995" stroke="white" stroke-width="2.5" stroke-linecap="round"/>
<path id="Vector 22" d="M29.6562 7.14331C29.6563 5.78565 28.4117 1.54297 22.8114 1.54296C17.211 1.54296 15.9665 5.78565 15.9665 7.14331" stroke="white" stroke-width="2.5" stroke-linecap="round"/>
</g>
</svg>
