<svg width="19" height="19" viewBox="0 0 19 19" fill="none" xmlns="http://www.w3.org/2000/svg">
<g id="fb.svg" clip-path="url(#clip0_1_1370)">
<g id="fb">
<path id="5365678_fb_facebook_facebook logo_icon" fill-rule="evenodd" clip-rule="evenodd" d="M15.9719 0.369629C16.5554 0.369629 17.1149 0.601414 17.5275 1.01399C17.9401 1.42657 18.1719 1.98615 18.1719 2.56963V16.1696C18.1719 16.7531 17.9401 17.3127 17.5275 17.7253C17.1149 18.1378 16.5554 18.3696 15.9719 18.3696H12.2299V11.5876H14.5719L15.0179 8.68763H12.2299V6.79763C12.2103 6.58028 12.24 6.36132 12.3167 6.15702C12.3934 5.95272 12.5151 5.76833 12.6729 5.61757C12.8307 5.46681 13.0204 5.35355 13.228 5.28621C13.4356 5.21888 13.6556 5.19919 13.8719 5.22863H15.1389V2.75563C14.3951 2.63421 13.6434 2.56737 12.8899 2.55563C12.3711 2.51544 11.8498 2.58994 11.363 2.77383C10.8762 2.95772 10.4358 3.24649 10.0731 3.61966C9.71045 3.99284 9.43435 4.44125 9.26442 4.9331C9.0945 5.42495 9.0349 5.94817 9.08988 6.46563V8.68263H6.53788V11.5826H9.08988V18.3696H2.37188C1.7884 18.3696 1.22882 18.1378 0.81624 17.7253C0.40366 17.3127 0.171875 16.7531 0.171875 16.1696L0.171875 2.56963C0.171875 1.98615 0.40366 1.42657 0.81624 1.01399C1.22882 0.601414 1.7884 0.369629 2.37188 0.369629L15.9719 0.369629Z" fill="#EFE1D0"/>
</g>
</g>
<defs>
<clipPath id="clip0_1_1370">
<rect width="18" height="18" fill="white" transform="translate(0.171875 0.369629)"/>
</clipPath>
</defs>
</svg>
