<svg width="120" height="31" viewBox="0 0 120 31" fill="none" xmlns="http://www.w3.org/2000/svg">
<g id="image" clip-path="url(#clip0_1_1340)">
<g id="WORDMARK">
<path id="Path 348" d="M107.918 1.9756C107.446 1.21314 106.694 0.666447 105.823 0.453249C105.44 0.355869 105.041 0.343383 104.653 0.416625C104.265 0.489866 103.898 0.647081 103.577 0.87725C103.2 1.15824 102.901 1.53112 102.709 1.96037C102.517 2.38963 102.438 2.86092 102.48 3.32934C102.674 4.30002 103.15 5.19206 103.847 5.8942C104.531 6.61324 104.936 7.55225 104.99 8.54284C104.939 9.18384 104.715 9.79913 104.343 10.3236L104.506 11.1306C104.91 10.8181 105.292 10.4781 105.65 10.1131C107.603 8.12984 109.589 4.71003 107.918 1.9756Z" fill="#EFE1D0"/>
<path id="Path 349" d="M20.6368 28.5628L21.2115 25.1958C22.7119 26.28 24.4935 26.9078 26.3421 27.0035C27.9872 27.0035 29.0526 26.1486 29.0526 24.7031C29.0526 23.6356 28.478 22.8934 26.2195 22.1552L25.4802 21.9108C22.647 20.965 21.0439 19.0346 21.0439 16.404C21.0439 13.3263 23.4671 11.0259 27.0804 11.0259C28.8983 11.0861 30.6803 11.5488 32.2978 12.3807L31.6823 15.7495C30.3128 14.9143 28.7625 14.421 27.1622 14.311C25.6448 14.311 24.8677 15.1659 24.8677 16.2822C24.8677 17.226 25.3605 17.9243 27.3318 18.6237L28.1528 18.9109C31.3162 19.9375 32.9992 21.8679 32.9992 24.6622C32.9992 28.0311 30.4533 30.3725 26.5936 30.3725C24.4824 30.3099 22.4261 29.6851 20.6368 28.5628Z" fill="#EFE1D0"/>
<path id="Path 350" d="M41.3253 15.8066V23.4473C41.2789 23.8 41.3116 24.1587 41.4207 24.4973C41.5298 24.8359 41.7128 25.1461 41.9564 25.4054C42.1999 25.6647 42.4981 25.8668 42.8292 25.9969C43.1603 26.127 43.5162 26.1819 43.8711 26.1578C44.7305 26.1244 45.5778 25.9439 46.3762 25.6241V29.2374C45.3319 29.6555 44.2159 29.8652 43.091 29.8549C39.353 29.8549 37.1762 27.5963 37.1762 23.8573V15.8066H34.3829L34.9985 12.2751H37.1752V7.735L41.3243 5.78369V12.2821H46.3762V15.8136L41.3253 15.8066Z" fill="#EFE1D0"/>
<path id="Path 351" d="M66.0597 18.678V29.8512H61.9107V19.1708C61.9107 16.2957 60.2676 14.7345 57.8853 14.7345C55.2975 14.7345 53.449 16.578 53.449 19.4591V29.8492H49.3009V2.38911L53.4499 0.447754V13.5882C54.1216 12.7616 54.9754 12.1017 55.9446 11.66C56.9138 11.2183 57.972 11.0069 59.0365 11.0423C63.2275 11.0373 66.0597 13.9145 66.0597 18.678Z" fill="#EFE1D0"/>
<path id="Path 352" d="M17.3252 22.8405L19.0949 25.967C17.1436 28.3094 14.3848 29.8347 11.3635 30.2417C10.0954 30.447 8.7991 30.3967 7.55078 30.0937C6.30245 29.7907 5.1273 29.2412 4.09444 28.4775C3.06158 27.7137 2.19184 26.7512 1.53639 25.6464C0.880936 24.5417 0.453 23.317 0.277734 22.0444C0.102469 20.7719 0.183411 19.4771 0.515811 18.2363C0.84821 16.9955 1.42536 15.8337 2.21331 14.8192C3.00125 13.8046 3.9841 12.9579 5.10404 12.3287C6.22399 11.6996 7.45843 11.3007 8.73478 11.1556C10.9579 10.8043 13.2306 11.3304 15.0732 12.6228C16.9159 13.9153 18.1844 15.873 18.6111 18.0829L5.1015 24.4676C5.74984 25.3845 6.64423 26.0993 7.68144 26.5297C8.71866 26.96 9.85642 27.0884 10.9634 26.8998C12.2479 26.703 13.4771 26.2402 14.5725 25.5413C15.668 24.8423 16.6055 23.9224 17.3252 22.8405ZM4.00014 21.3292L14.0301 16.5566C13.5098 15.7708 12.7721 15.1534 11.9069 14.7796C11.0418 14.4059 10.0866 14.2919 9.15776 14.4516C7.5647 14.6858 6.12874 15.5401 5.16269 16.8283C4.19664 18.1165 3.77878 19.7343 4.00014 21.3292Z" fill="#EFE1D0"/>
<path id="Path 353" d="M85.8369 22.8406L87.6067 25.9671C85.6554 28.3095 82.8966 29.8348 79.8752 30.2419C78.6072 30.4471 77.3108 30.3968 76.0625 30.0938C74.8141 29.7909 73.639 29.2413 72.6062 28.4776C71.5733 27.7138 70.7035 26.7513 70.0481 25.6466C69.3926 24.5418 68.9647 23.3171 68.7895 22.0445C68.6142 20.772 68.6951 19.4772 69.0275 18.2364C69.3599 16.9956 69.9371 15.8338 70.7251 14.8193C71.513 13.8048 72.4958 12.958 73.6158 12.3289C74.7357 11.6997 75.9702 11.3008 77.2465 11.1557C79.4697 10.8044 81.7423 11.3305 83.5849 12.6229C85.4276 13.9154 86.6961 15.8731 87.1228 18.083L73.6132 24.4677C74.2615 25.3846 75.1559 26.0995 76.1931 26.5298C77.2303 26.9602 78.3682 27.0885 79.4752 26.8999C80.7599 26.7039 81.9894 26.2415 83.085 25.5425C84.1805 24.8435 85.1178 23.9231 85.8369 22.8406ZM72.5118 21.3293L82.5418 16.5567C82.0212 15.7722 81.2841 15.1557 80.4199 14.782C79.5557 14.4084 78.6016 14.2936 77.6735 14.4517C76.079 14.6835 74.6411 15.537 73.6739 16.8257C72.7067 18.1144 72.2889 19.7335 72.5118 21.3293Z" fill="#EFE1D0"/>
<path id="Path 354" d="M100.318 11.1587V15.0613C96.4562 15.0613 94.4031 16.9099 94.4031 20.8125V29.8488H90.254V11.7762L94.1447 11.2016V14.2403C95.3468 12.2271 97.359 11.1587 100.318 11.1587Z" fill="#EFE1D0"/>
<path id="Path 355" d="M107.449 28.5628L108.024 25.1958C109.524 26.2803 111.306 26.908 113.155 27.0035C114.798 27.0035 115.865 26.1486 115.865 24.7031C115.865 23.6356 115.29 22.8934 113.032 22.1552L112.292 21.9108C109.459 20.965 107.857 19.0346 107.857 16.404C107.857 13.3263 110.281 11.0259 113.894 11.0259C115.712 11.0861 117.494 11.5488 119.111 12.3807L118.494 15.7495C117.125 14.9142 115.575 14.4208 113.976 14.311C112.457 14.311 111.681 15.1659 111.681 16.2822C111.681 17.226 112.174 17.9243 114.145 18.6237L114.966 18.9109C118.128 19.9375 119.813 21.8679 119.813 24.6622C119.813 28.0311 117.267 30.3725 113.407 30.3725C111.295 30.31 109.239 29.6853 107.449 28.5628Z" fill="#EFE1D0"/>
</g>
</g>
<defs>
<clipPath id="clip0_1_1340">
<rect width="119.617" height="30" fill="white" transform="translate(0.191528 0.369629)"/>
</clipPath>
</defs>
</svg>
