<svg width="32" height="36" viewBox="0 0 32 36" fill="none" xmlns="http://www.w3.org/2000/svg">
<g id="Frame">
<g id="Clip path group">
<mask id="mask0_1_1403" style="mask-type:luminance" maskUnits="userSpaceOnUse" x="0" y="0" width="32" height="36">
<g id="clip0">
<path id="Vector" d="M31.6775 0H0V36H31.6775V0Z" fill="white"/>
</g>
</mask>
<g mask="url(#mask0_1_1403)">
<g id="Group">
<path id="Vector_2" d="M26.8184 1.76506C26.3 0.925895 25.4727 0.323985 24.5147 0.0890286C23.6857 -0.106854 22.7981 0.00842422 22.0416 0.555543C21.186 1.17516 20.7519 2.21041 20.8316 3.25737C20.9149 4.35026 21.6872 5.25717 22.3343 6.08618C23.0016 6.94176 23.6631 7.92162 23.5924 9.00325C23.5434 9.74805 23.27 10.3889 22.8805 10.9634L23.0606 11.8541C23.5065 11.5102 23.9278 11.1355 24.3215 10.7329C26.4721 8.54799 28.6588 4.77669 26.8184 1.76506Z" fill="white"/>
<path id="Vector_3" d="M11.8751 24.0011C9.04852 24.3659 6.76098 23.2482 5.41727 21.3222L20.2962 14.2934C18.9494 8.80963 14.4801 6.00963 9.41192 6.66393C3.35353 7.44475 -0.672187 12.6633 0.0906271 18.5893C0.853442 24.5154 6.02248 28.496 12.3051 27.6855C14.7795 27.3649 17.041 26.3584 18.9314 24.8283C18.1082 23.766 17.6304 22.5029 17.5453 21.0908C15.8387 22.8096 13.9271 23.7359 11.8751 24.0011ZM9.88023 10.2988C12.1237 10.0092 14.1527 10.8878 15.2429 12.6178L4.1965 17.8756C3.83986 14.0449 6.24538 10.7684 9.88023 10.2988Z" fill="white"/>
<path id="Vector_4" d="M18.0586 34.0059L18.6922 30.2963C20.6839 31.5635 22.4928 32.2876 24.3476 32.2876C26.1582 32.2876 27.3335 31.337 27.3335 29.7528C27.3335 28.5775 26.6999 27.7616 24.2111 26.9474L23.397 26.6773C20.2764 25.6362 18.5121 23.5089 18.5121 20.613C18.5121 17.22 21.181 14.6875 25.1617 14.6875C27.0165 14.6875 29.0537 15.2729 30.9089 16.1793L30.229 19.8912C28.4201 18.8492 26.5176 18.3088 25.2518 18.3088C23.5793 18.3088 22.7193 19.259 22.7193 20.4806C22.7193 21.5213 23.2623 22.2895 25.4341 23.0591L26.3388 23.3743C29.8219 24.5054 31.6771 26.6309 31.6771 29.7091C31.6771 33.4187 28.8713 35.9976 24.62 35.9976C22.3563 35.9972 20.0039 35.183 18.0586 34.0059Z" fill="white"/>
</g>
</g>
</g>
</g>
</svg>
