<svg width="19" height="19" viewBox="0 0 19 19" fill="none" xmlns="http://www.w3.org/2000/svg">
<g id="instagram.svg" clip-path="url(#clip0_1_1378)">
<g id="instagram">
<path id="Path 343" d="M9.17188 0.369629C11.6169 0.369629 11.9219 0.378629 12.8819 0.423629C13.6286 0.439224 14.3673 0.580885 15.0669 0.842629C15.668 1.06749 16.2124 1.42148 16.6619 1.87963C17.1197 2.32956 17.4739 2.87386 17.6999 3.47463C17.9613 4.17426 18.1029 4.91293 18.1189 5.65963C18.1599 6.61963 18.1719 6.92463 18.1719 9.36963C18.1719 11.8146 18.1629 12.1196 18.1179 13.0796C18.1018 13.8263 17.9602 14.565 17.6989 15.2646C17.4684 15.8622 17.1157 16.4051 16.6634 16.8585C16.211 17.3119 15.6689 17.6658 15.0719 17.8976C14.3722 18.159 13.6336 18.3007 12.8869 18.3166C11.9279 18.3586 11.6219 18.3706 9.17688 18.3706C6.73188 18.3706 6.42688 18.3616 5.46688 18.3166C4.72019 18.3006 3.98153 18.1589 3.28188 17.8976C2.68346 17.6675 2.13975 17.3149 1.68563 16.8623C1.23151 16.4098 0.877012 15.8673 0.644875 15.2696C0.383038 14.5701 0.241374 13.8314 0.225875 13.0846C0.183875 12.1206 0.171875 11.8146 0.171875 9.36963C0.171875 6.92463 0.180875 6.61963 0.225875 5.65963C0.241374 4.91288 0.383038 4.17414 0.644875 3.47463C0.869857 2.87358 1.22383 2.32915 1.68187 1.87963C2.1317 1.42196 2.67605 1.06805 3.27688 0.842629C3.97638 0.580792 4.71513 0.439128 5.46187 0.423629C6.42188 0.381629 6.72688 0.369629 9.17188 0.369629ZM9.17188 4.86963C8.28186 4.86963 7.41183 5.13355 6.67181 5.62802C5.93179 6.12248 5.35501 6.82529 5.01442 7.64755C4.67382 8.46982 4.58471 9.37462 4.75834 10.2475C4.93197 11.1205 5.36056 11.9223 5.98989 12.5516C6.61923 13.1809 7.42105 13.6095 8.29397 13.7832C9.16688 13.9568 10.0717 13.8677 10.894 13.5271C11.7162 13.1865 12.419 12.6097 12.9135 11.8697C13.408 11.1297 13.6719 10.2596 13.6719 9.36963C13.6719 8.17615 13.1978 7.03156 12.3539 6.18765C11.5099 5.34373 10.3653 4.86963 9.17188 4.86963ZM15.0219 4.64463C15.0219 4.42212 14.9559 4.20462 14.8323 4.01961C14.7087 3.83461 14.533 3.69041 14.3274 3.60526C14.1218 3.52012 13.8956 3.49784 13.6774 3.54125C13.4592 3.58465 13.2587 3.6918 13.1014 3.84913C12.944 4.00647 12.8369 4.20692 12.7935 4.42515C12.7501 4.64338 12.7724 4.86958 12.8575 5.07515C12.9427 5.28071 13.0869 5.45642 13.2719 5.58003C13.4569 5.70365 13.6744 5.76963 13.8969 5.76963C14.0446 5.76963 14.1909 5.74053 14.3274 5.68399C14.4639 5.62746 14.5879 5.54459 14.6924 5.44012C14.7968 5.33566 14.8797 5.21164 14.9362 5.07515C14.9928 4.93866 15.0219 4.79237 15.0219 4.64463ZM9.17188 6.66963C9.70588 6.66963 10.2279 6.82798 10.6719 7.12466C11.1159 7.42134 11.462 7.84302 11.6663 8.33638C11.8707 8.82974 11.9242 9.37262 11.82 9.89637C11.7158 10.4201 11.4587 10.9012 11.0811 11.2788C10.7035 11.6564 10.2224 11.9136 9.69862 12.0177C9.17487 12.1219 8.63199 12.0685 8.13863 11.8641C7.64527 11.6597 7.22359 11.3137 6.92691 10.8697C6.63023 10.4257 6.47188 9.90364 6.47188 9.36963C6.47188 8.65354 6.75634 7.96679 7.26269 7.46044C7.76903 6.95409 8.45579 6.66963 9.17188 6.66963Z" fill="#EFE1D0"/>
</g>
</g>
<defs>
<clipPath id="clip0_1_1378">
<rect width="18" height="18" fill="white" transform="translate(0.171875 0.369629)"/>
</clipPath>
</defs>
</svg>
