<svg xmlns="http://www.w3.org/2000/svg" width="20" height="20" viewBox="0 0 20 20" fill="none">
<path d="M14.174 17.4961L5.84068 17.504C4.00735 17.5057 2.5061 16.0073 2.50401 14.174L2.4961 5.84068C2.49443 4.00735 3.99276 2.5061 5.8261 2.50401L14.1594 2.4961C15.9928 2.49443 17.494 3.99276 17.4961 5.8261L17.504 14.1594C17.5061 15.9932 16.0073 17.4944 14.174 17.4961Z" fill="url(#paint0_radial_33_220)"/>
<path d="M14.174 17.4961L5.84068 17.504C4.00735 17.5057 2.5061 16.0073 2.50401 14.174L2.4961 5.84068C2.49443 4.00735 3.99276 2.5061 5.8261 2.50401L14.1594 2.4961C15.9928 2.49443 17.494 3.99276 17.4961 5.8261L17.504 14.1594C17.5061 15.9932 16.0073 17.4944 14.174 17.4961Z" fill="url(#paint1_radial_33_220)"/>
<path d="M9.9987 12.9154C8.39078 12.9154 7.08203 11.607 7.08203 9.9987C7.08203 8.39036 8.39078 7.08203 9.9987 7.08203C11.6066 7.08203 12.9154 8.39036 12.9154 9.9987C12.9154 11.607 11.6066 12.9154 9.9987 12.9154ZM9.9987 7.91536C8.84995 7.91536 7.91536 8.84995 7.91536 9.9987C7.91536 11.1474 8.84995 12.082 9.9987 12.082C11.1474 12.082 12.082 11.1474 12.082 9.9987C12.082 8.84995 11.1474 7.91536 9.9987 7.91536Z" fill="white"/>
<path d="M13.125 7.5C13.4702 7.5 13.75 7.22018 13.75 6.875C13.75 6.52982 13.4702 6.25 13.125 6.25C12.7798 6.25 12.5 6.52982 12.5 6.875C12.5 7.22018 12.7798 7.5 13.125 7.5Z" fill="white"/>
<path d="M12.4987 15.4154H7.4987C5.89078 15.4154 4.58203 14.107 4.58203 12.4987V7.4987C4.58203 5.89036 5.89078 4.58203 7.4987 4.58203H12.4987C14.1066 4.58203 15.4154 5.89036 15.4154 7.4987V12.4987C15.4154 14.107 14.1066 15.4154 12.4987 15.4154ZM7.4987 5.41536C6.34995 5.41536 5.41536 6.34995 5.41536 7.4987V12.4987C5.41536 13.6474 6.34995 14.582 7.4987 14.582H12.4987C13.6474 14.582 14.582 13.6474 14.582 12.4987V7.4987C14.582 6.34995 13.6474 5.41536 12.4987 5.41536H7.4987Z" fill="white"/>
<defs>
<radialGradient id="paint0_radial_33_220" cx="0" cy="0" r="1" gradientUnits="userSpaceOnUse" gradientTransform="translate(8.07526 17.5148) scale(18.7079)">
<stop stop-color="#FFDD55"/>
<stop offset="0.328" stop-color="#FF543F"/>
<stop offset="0.348" stop-color="#FC5245"/>
<stop offset="0.504" stop-color="#E64771"/>
<stop offset="0.643" stop-color="#D53E91"/>
<stop offset="0.761" stop-color="#CC39A4"/>
<stop offset="0.841" stop-color="#C837AB"/>
</radialGradient>
<radialGradient id="paint1_radial_33_220" cx="0" cy="0" r="1" gradientUnits="userSpaceOnUse" gradientTransform="translate(4.9111 2.30872) scale(12.4221 8.27683)">
<stop stop-color="#4168C9"/>
<stop offset="0.999" stop-color="#4168C9" stop-opacity="0"/>
</radialGradient>
</defs>
</svg>