<svg width="19" height="19" viewBox="0 0 19 19" fill="none" xmlns="http://www.w3.org/2000/svg">
<g id="linkedin.svg" clip-path="url(#clip0_1_1374)">
<g id="Linkedin">
<path id="Subtraction 2" d="M15.9199 18.3745H2.41992C1.82361 18.3748 1.2523 18.1384 0.830078 17.7173C0.407861 17.2962 0.169293 16.7247 0.167969 16.1284V2.62842C0.168763 2.03149 0.405936 1.4596 0.828125 1.0376C1.25031 0.615597 1.82299 0.377971 2.41992 0.377441H15.9199C16.5169 0.377971 17.0895 0.615597 17.5117 1.0376C17.9339 1.4596 18.1711 2.03149 18.1719 2.62842V16.1284C18.1706 16.7247 17.932 17.2962 17.5098 17.7173C17.0875 18.1384 16.5162 18.3748 15.9199 18.3745ZM9.89453 7.00928H7.30859C7.34159 7.71528 7.30859 14.6761 7.30859 14.7251H9.89453V10.4136C9.88306 10.2007 9.91349 9.98768 9.98438 9.78662C10.0826 9.51367 10.2627 9.27765 10.5 9.11084C10.7373 8.94403 11.0205 8.85494 11.3105 8.85498C12.1645 8.85498 12.6172 9.45417 12.6172 10.5972V14.7241H15.2031V10.2993C15.2031 8.12232 14.0906 6.82275 12.2246 6.82275C11.7568 6.80401 11.2933 6.91302 10.8828 7.13818C10.4723 7.36335 10.1302 7.69551 9.89453 8.1001V7.00928ZM3.29492 7.00928V14.7251H5.88086V7.00928H3.29492ZM4.60352 3.28857C4.41819 3.27164 4.23112 3.29383 4.05469 3.35303C3.87826 3.41223 3.71573 3.50704 3.57812 3.63232C3.44052 3.75761 3.3313 3.91044 3.25586 4.08057C3.18042 4.25069 3.1411 4.43451 3.14062 4.62061C3.14075 4.80351 3.179 4.98413 3.25195 5.15186C3.3249 5.31958 3.43074 5.47041 3.56445 5.59521C3.69816 5.72002 3.85695 5.81621 4.0293 5.87744C4.20165 5.93867 4.38393 5.96413 4.56641 5.95166H4.5918C4.77669 5.96832 4.96276 5.94652 5.13867 5.88721C5.31459 5.8279 5.47622 5.73214 5.61328 5.60693C5.75034 5.48172 5.86061 5.32951 5.93555 5.15967C6.01048 4.98982 6.04874 4.80625 6.04883 4.62061C6.04887 4.43586 6.01158 4.25275 5.9375 4.0835C5.86342 3.91425 5.75489 3.76253 5.61914 3.63721C5.48339 3.51189 5.32306 3.4163 5.14844 3.35596C4.97382 3.29562 4.78767 3.27185 4.60352 3.28662V3.28857Z" fill="#EFE1D0"/>
</g>
</g>
<defs>
<clipPath id="clip0_1_1374">
<rect width="18" height="18" fill="white" transform="translate(0.171875 0.369629)"/>
</clipPath>
</defs>
</svg>
