<svg xmlns="http://www.w3.org/2000/svg" width="20" height="20" viewBox="0 0 20 20" fill="none">
<path fill-rule="evenodd" clip-rule="evenodd" d="M4.54333 2.5H15.4563C16.585 2.5 17.5 3.415 17.5 4.54333V15.4563C17.5 16.585 16.585 17.5 15.4567 17.5H4.54333C3.415 17.5 2.5 16.585 2.5 15.4567V4.54333C2.5 3.415 3.415 2.5 4.54333 2.5Z" fill="#212121"/>
<path fill-rule="evenodd" clip-rule="evenodd" d="M12.1711 8.5849C12.8278 9.05406 13.6323 9.3299 14.5011 9.3299V7.65865C14.3365 7.65865 14.1728 7.64156 14.0119 7.6074V8.92281C13.1432 8.92281 12.339 8.64656 11.6819 8.17781V11.5878C11.6819 13.2936 10.2982 14.6766 8.59151 14.6766C7.95484 14.6766 7.36276 14.4841 6.87109 14.1541C7.43234 14.7274 8.21484 15.0832 9.08068 15.0832C10.7873 15.0832 12.1711 13.7003 12.1711 11.9945V8.5849ZM12.7748 6.89906C12.4394 6.53281 12.219 6.05906 12.1711 5.53531V5.32031H11.7073C11.824 5.98573 12.2223 6.55448 12.7748 6.89906ZM7.95068 12.8453C7.76318 12.5995 7.66193 12.2991 7.66234 11.9899C7.66234 11.2095 8.29526 10.577 9.07609 10.577C9.22151 10.577 9.36609 10.5991 9.50484 10.6432V8.9349C9.34276 8.91281 9.17943 8.90323 9.01568 8.90656V10.2361C8.87693 10.192 8.73234 10.1699 8.58651 10.1699C7.80568 10.1699 7.17276 10.8024 7.17276 11.5828C7.17318 12.1349 7.48943 12.6128 7.95068 12.8453Z" fill="#EC407A"/>
<path fill-rule="evenodd" clip-rule="evenodd" d="M11.6791 8.17781C12.3358 8.64698 13.1404 8.92281 14.0091 8.92281V7.6074C13.5241 7.50406 13.0949 7.25073 12.772 6.89865C12.2195 6.55406 11.8216 5.98573 11.7049 5.32031H10.487V11.9945C10.4841 12.7724 9.85245 13.4024 9.07328 13.4024C8.61411 13.4024 8.2062 13.1836 7.94786 12.8449C7.48661 12.6124 7.17036 12.1345 7.17036 11.5828C7.17036 10.8024 7.80328 10.1699 8.58411 10.1699C8.7337 10.1699 8.87786 10.1932 9.01328 10.2361V8.90698C7.33661 8.94156 5.98828 10.3107 5.98828 11.9949C5.98828 12.8357 6.32411 13.5978 6.86911 14.1545C7.36078 14.4845 7.95286 14.677 8.58953 14.677C10.2962 14.677 11.6799 13.2941 11.6799 11.5882L11.6791 8.17781Z" fill="white"/>
<path fill-rule="evenodd" clip-rule="evenodd" d="M14.0108 7.60865V7.25281C13.5733 7.25365 13.145 7.13115 12.7738 6.89948C13.1021 7.25906 13.5346 7.50698 14.0108 7.60865ZM11.7062 5.32115C11.695 5.2574 11.6867 5.19365 11.6808 5.12906V4.91406H9.99917V11.5886C9.99667 12.3666 9.36458 12.9966 8.58542 12.9966C8.35667 12.9966 8.14083 12.9424 7.94958 12.8457C8.20792 13.1845 8.61583 13.4032 9.075 13.4032C9.85417 13.4032 10.4858 12.7732 10.4887 11.9953V5.32115H11.7062ZM9.01458 8.90781V8.52906C8.87417 8.5099 8.7325 8.50031 8.59042 8.50031C6.88333 8.50031 5.5 9.88323 5.5 11.5891C5.5 12.6586 6.04375 13.6011 6.87 14.1553C6.325 13.5986 5.98917 12.8366 5.98917 11.9957C5.98917 10.3116 7.33792 8.9424 9.01458 8.90781Z" fill="#81D4FA"/>
</svg>