<svg width="19" height="19" viewBox="0 0 19 19" fill="none" xmlns="http://www.w3.org/2000/svg">
<g id="youtube.svg" clip-path="url(#clip0_1_1366)">
<g id="youtube">
<path id="Subtraction 5" d="M9.67254 15.6675C9.61652 15.6675 4.03873 15.6636 2.63144 15.2792C2.25104 15.1768 1.90385 14.9762 1.62498 14.698C1.34612 14.4197 1.14566 14.0731 1.04244 13.6929C0.548353 10.8283 0.548353 7.90076 1.04244 5.03615C1.1484 4.65566 1.34948 4.30865 1.62772 4.02832C1.90596 3.748 2.25175 3.54364 2.63144 3.43484C4.02193 3.06937 9.61652 3.06494 9.67254 3.06494C9.72855 3.06494 15.3238 3.06901 16.7164 3.44988C17.0966 3.5523 17.4444 3.75264 17.7228 4.03106C18.0012 4.30948 18.2016 4.65664 18.304 5.03683C18.5669 6.4699 18.6893 7.92509 18.6718 9.38196C18.6795 10.8327 18.5571 12.2809 18.304 13.7093C18.2013 14.0893 17.9998 14.4355 17.7215 14.7137C17.4431 14.992 17.0964 15.1924 16.7164 15.2949C15.3238 15.6632 9.72855 15.6675 9.67254 15.6675ZM7.87705 6.66685V12.0615L12.562 9.36555L7.87705 6.66685Z" fill="#EFE1D0"/>
</g>
</g>
<defs>
<clipPath id="clip0_1_1366">
<rect width="18" height="18" fill="white" transform="translate(0.671875 0.369629)"/>
</clipPath>
</defs>
</svg>
