<svg xmlns="http://www.w3.org/2000/svg" width="22" height="22" viewBox="0 0 22 22" fill="none">
<path d="M19.7987 15.5375C19.6154 16.5 18.8362 17.2333 17.8737 17.3708C16.3612 17.6 13.8404 17.875 10.9987 17.875C8.20286 17.875 5.68203 17.6 4.1237 17.3708C3.1612 17.2333 2.38203 16.5 2.1987 15.5375C2.01536 14.4833 1.83203 12.925 1.83203 11C1.83203 9.075 2.01536 7.51667 2.1987 6.4625C2.38203 5.5 3.1612 4.76667 4.1237 4.62917C5.6362 4.4 8.15703 4.125 10.9987 4.125C13.8404 4.125 16.3154 4.4 17.8737 4.62917C18.8362 4.76667 19.6154 5.5 19.7987 6.4625C19.982 7.51667 20.2112 9.075 20.2112 11C20.1654 12.925 19.982 14.4833 19.7987 15.5375Z" fill="#FF3D00"/>
<path d="M9.16797 14.2096V7.79297L14.668 11.0013L9.16797 14.2096Z" fill="white"/>
</svg>